<svg width="372" height="148" viewBox="0 0 372 148" fill="none" xmlns="http://www.w3.org/2000/svg">
<path d="M0 2C0 3.39999 0.7 4 2.1 4C6 4 11 7.2 14.5 12L18 16.8L17.8 73.7C17.5 135.4 17.6 134 11.9 138.3C10.4 139.3 7.2 140.5 4.6 140.7C1 141.2 0 141.6 0 143.1C0 144.9 1.2 145 22 145C43.3 145 44 144.9 44 143C44 141.3 43.3 141 40.1 141C35.8 141 30.9 138.1 27.6 133.7C25.5 130.9 25.5 129.8 25.2 79.2C25.1 50.8 25.3 28 25.7 28.6C80 106.5 109.7 148 111.2 148C112.9 148 113 145 113 83.1C113 47.4 113.3 16.8 113.6 15.1C114.6 10.5 119 6.3 124.4 4.89999C127.8 4.09999 129 3.3 129 1.89999C129 0.0999908 127.9 0 108.5 0C88.7 0 88 0.0999908 88 2C88 3.59999 88.7 4 91.3 4C96.1 4 101.1 7.09999 103.4 11.6C105.4 15.2 105.5 17.5 105.8 45.5C106 65.5 105.8 75.2 105.1 74.5C104.6 73.9 92.7 57.1 78.7 37L53.2 0.5L26.6 0.199997C0.5 0 0 0 0 2Z" fill="#2D4594"/>
<path d="M133 3.5C133 5.2 133.7 5.5 137.6 5.5C142.9 5.5 147.3 7.7 149.2 11.4C151.1 15.1 151.6 125.6 149.8 133C148.2 139.2 143.9 142.5 137.4 142.5C133.7 142.5 133 142.8 133 144.5C133 146.5 133.7 146.5 171 146.5C208.3 146.5 209 146.5 209 144.5C209 142.8 208.3 142.5 204.1 142.5C197.9 142.5 194.3 139.7 193 134C192.5 131.8 192 124.5 192 117.9V105.7L201.5 99C218.5 86.9 228.2 74 229.6 61.5C231.1 48.2 223.6 38.3 212 38.3C206.1 38.3 201.6 40.6 196.3 46.4L192 51V30.2V9.5H201.3C220 9.59999 231.2 12.7 237.4 19.5C241.1 23.6 244.4 31.4 245.4 38.7C245.9 41.9 246.6 43.5 247.6 43.5C248.8 43.5 249 40.1 249 22.5V1.5H191C133.7 1.5 133 1.5 133 3.5ZM179.9 40.5C182.1 41.5 185.4 44.3 187.4 46.6L191 50.9V77.7V104.6L182 98.5C157 81.3 147.1 58.2 158.8 44.3C163.8 38.4 172.7 36.8 179.9 40.5Z" fill="#2D4594"/>
<path d="M265.71 2.20093C265.71 2.70093 265.01 10.6009 264.21 20.0009C263.41 29.3009 262.71 38.5009 262.71 40.2009C262.71 45.8009 265.21 44.1009 267.11 37.2009C270.71 24.4009 278.01 15.4009 287.51 12.0009C291.91 10.4009 314.71 8.50093 314.71 9.80092C314.71 10.1009 300.91 40.4009 284.11 77.2009C267.31 113.901 253.31 144.601 253.01 145.201C252.61 146.201 264.31 146.501 309.61 146.501C341.01 146.501 366.71 146.401 366.71 146.201C366.71 146.101 367.81 134.701 369.21 121.001C370.61 107.201 371.71 95.6009 371.71 95.2009C371.71 94.7009 371.01 94.5009 370.11 94.7009C369.01 94.9009 367.91 97.4009 366.61 102.301C360.21 127.801 343.71 139.001 313.91 138.301L301.91 138.001L332.81 70.5009C349.81 33.4009 363.71 2.70093 363.71 2.30092C363.71 1.30092 265.71 1.20093 265.71 2.20093Z" fill="#2D4594"/>
</svg>
